Coordinates
version=1
nRows=5
nColumns=42
inDegrees=yes

Units are S.I. units (second, meters, Newtons, ...)
Angles are in degrees.

endheader
time	pelvis_tilt	pelvis_list	pelvis_rotation	pelvis_tx	pelvis_ty	pelvis_tz	hip_flexion_r	hip_adduction_r	hip_rotation_r	knee_angle_r	knee_vv_r	knee_rot_r	ankle_angle_r	subtalar_angle_r	mtp_angle_r	hip_flexion_l	hip_adduction_l	hip_rotation_l	knee_angle_l	knee_vv_l	knee_rot_l	ankle_angle_l	subtalar_angle_l	mtp_angle_l	lumbar_extension	lumbar_bending	lumbar_rotation	arm_flex_r	arm_add_r	arm_rot_r	elbow_flex_r	pro_sup_r	wrist_flex_r	wrist_dev_r	arm_flex_l	arm_add_l	arm_rot_l	elbow_flex_l	pro_sup_l	wrist_flex_l	wrist_dev_l
      7.53000000	      8.72136199	      4.99051370	      0.00502395	      0.06020972	      0.91552675	     -0.06120456	     11.83950936	     -7.30437312	      0.75820286	    -60.82465093	      0.00000000	      0.00000000	      2.41005030	      0.00000000	      0.00000000	     -3.29118348	      9.38017908	     -2.64957721	     -8.62321274	      0.00000000	      0.00000000	      1.73748320	      0.00000000	      0.00000000	    -24.24973888	     -4.58801502	     -2.09718959	     -0.17246362	    -10.31941902	     34.41390174	      4.55488672	     86.51662706	      0.00000000	      0.00000000	     24.25840498	    -20.22328856	     28.59911257	     25.41445620	     85.94366927	      0.00000000	      0.00000000
      7.54000000	      8.53048554	      4.77799026	      0.07847057	      0.05941733	      0.91585959	     -0.06199208	     12.97790007	     -7.26169567	      0.30217180	    -59.74886308	      0.00000000	      0.00000000	      3.44773709	      0.00000000	      0.00000000	     -3.85075158	      9.20840181	     -2.58057262	     -8.19858426	      0.00000000	      0.00000000	      1.99033107	      0.00000000	      0.00000000	    -24.01400594	     -4.22483840	     -2.29618385	     -0.89488011	    -10.36935647	     34.24863688	      4.56293806	     86.51662706	      0.00000000	      0.00000000	     24.68545709	    -20.51667856	     27.72517690	     26.48211842	     85.94366927	      0.00000000	      0.00000000
      7.55000000	      8.36673329	      4.55665757	      0.13499500	      0.05867554	      0.91613953	     -0.06270560	     13.97455672	     -7.21151704	     -0.20251649	    -58.36936931	      0.00000000	      0.00000000	      4.33278266	      0.00000000	      0.00000000	     -4.44803720	      9.02149346	     -2.55828497	     -7.75789349	      0.00000000	      0.00000000	      2.25020350	      0.00000000	      0.00000000	    -23.80730820	     -3.86249350	     -2.48360573	     -1.57463837	    -10.43304246	     34.04257543	      4.56791497	     86.51662706	      0.00000000	      0.00000000	     25.04792791	    -20.78536708	     26.79002245	     27.54863348	     85.94366927	      0.00000000	      0.00000000
      7.56000000	      8.24330976	      4.33541715	      0.18324797	      0.05799692	      0.91637558	     -0.06335782	     14.80719403	     -7.16050403	     -0.76706019	    -56.68576589	      0.00000000	      0.00000000	      5.06393842	      0.00000000	      0.00000000	     -5.09570148	      8.82826608	     -2.56727963	     -7.30243583	      0.00000000	      0.00000000	      2.51931030	      0.00000000	      0.00000000	    -23.64569183	     -3.50831267	     -2.67378670	     -2.20631491	    -10.50528541	     33.79333375	      4.57026561	     86.51662706	      0.00000000	      0.00000000	     25.35017829	    -21.03465904	     25.81772953	     28.60720306	     85.94366927	      0.00000000	      0.00000000
      7.57000000	      8.16735619	      4.12366456	      0.23358215	      0.05738890	      0.91658001	     -0.06395754	     15.46563108	     -7.11713599	     -1.39759121	    -54.70585009	      0.00000000	      0.00000000	      5.63802921	      0.00000000	      0.00000000	     -5.79866428	      8.63757028	     -2.58670189	     -6.83724172	      0.00000000	      0.00000000	      2.80075584	      0.00000000	      0.00000000	    -23.53483675	     -3.16976641	     -2.87756620	     -2.78853632	    -10.58084618	     33.49793099	      4.57216174	     86.51662706	      0.00000000	      0.00000000	     25.59956288	    -21.27009392	     24.84007161	     29.64542104	     85.94366927	      0.00000000	      0.00000000
